<svg width="520" height="486" viewBox="0 0 520 486" fill="none" xmlns="http://www.w3.org/2000/svg">
<path d="M440.001 361.403C418.683 393.376 378.884 408.742 331.656 407.638C284.435 406.534 229.863 388.959 179.154 355.148C128.444 321.338 91.237 277.72 72.0604 234.554C52.8809 191.381 51.7623 148.734 73.0804 116.76C94.3985 84.7868 134.197 69.4208 181.426 70.5252C228.647 71.6295 283.218 89.2045 333.928 123.015C384.637 156.825 421.845 200.443 441.021 243.609C460.201 286.782 461.319 329.43 440.001 361.403Z" stroke="url(#paint0_linear_26_4973)"/>
<path d="M146.801 429.729C120.101 414.314 107.581 379.944 109.089 336.632C110.596 293.344 126.121 241.264 155.331 190.671C184.541 140.077 221.881 100.592 258.616 77.6428C295.372 54.6806 331.397 48.3391 358.097 63.7541C384.796 79.1691 397.317 113.539 395.809 156.851C394.302 200.139 378.777 252.219 349.567 302.813C320.357 353.407 283.017 392.892 246.282 415.841C209.526 438.803 173.501 445.144 146.801 429.729Z" stroke="url(#paint1_linear_26_4973)"/>
<g opacity="0.24">
<path fill-rule="evenodd" clip-rule="evenodd" d="M250.621 140.107C239.464 138.391 229.029 146.044 227.314 157.201L223.628 181.166L223.256 183.585L217.97 217.958C216.231 229.271 215.361 234.928 216.898 239.588C218.25 243.687 220.865 247.252 224.369 249.774C228.351 252.64 234.008 253.51 245.322 255.25L305.802 264.55C317.116 266.29 322.772 267.16 327.432 265.623C331.531 264.271 335.097 261.655 337.618 258.152C340.484 254.17 341.354 248.513 343.094 237.199L348.752 200.407C350.492 189.094 351.361 183.437 349.824 178.777C348.472 174.678 345.857 171.113 342.354 168.591C338.371 165.725 332.714 164.855 321.401 163.115L307.795 161.023C297.365 159.419 289.165 146.034 278.735 144.43L250.621 140.107Z" fill="url(#paint2_radial_26_4973)"/>
<path fill-rule="evenodd" clip-rule="evenodd" d="M250.497 140.916C239.787 139.269 229.77 146.616 228.123 157.325L218.78 218.082C217.908 223.752 217.262 227.956 217.022 231.326C216.783 234.686 216.954 237.145 217.675 239.331C218.973 243.266 221.484 246.689 224.847 249.109C226.715 250.454 229.009 251.356 232.286 252.138C235.572 252.921 239.776 253.569 245.446 254.441L305.926 263.741C311.597 264.613 315.801 265.259 319.17 265.499C322.531 265.738 324.989 265.567 327.176 264.845C331.11 263.547 334.533 261.037 336.953 257.674C338.298 255.805 339.201 253.512 339.982 250.235C340.766 246.949 341.413 242.745 342.285 237.075L347.943 200.283C348.815 194.613 349.46 190.409 349.7 187.039C349.94 183.679 349.768 181.22 349.047 179.033C347.749 175.099 345.238 171.676 341.875 169.256C340.007 167.911 337.713 167.009 334.436 166.227C331.15 165.443 326.946 164.796 321.276 163.924L307.67 161.832C302.237 160.997 297.434 157.132 292.859 153.45L292.752 153.364C288.045 149.577 283.566 146.001 278.611 145.239L250.497 140.916ZM227.314 157.201C229.029 146.044 239.464 138.391 250.621 140.107L278.735 144.43C283.95 145.232 288.608 148.979 293.265 152.726C297.923 156.474 302.58 160.221 307.795 161.023L321.401 163.115C332.714 164.855 338.371 165.725 342.354 168.591C345.857 171.113 348.472 174.678 349.824 178.777C351.361 183.437 350.492 189.094 348.752 200.407L343.094 237.199C341.354 248.513 340.484 254.17 337.618 258.152C335.097 261.655 331.531 264.271 327.432 265.623C322.772 267.16 317.116 266.29 305.802 264.55L245.322 255.25C234.008 253.51 228.351 252.64 224.369 249.774C220.865 247.252 218.25 243.687 216.898 239.588C215.361 234.928 216.231 229.271 217.97 217.958L227.314 157.201Z" fill="url(#paint3_linear_26_4973)"/>
<path fill-rule="evenodd" clip-rule="evenodd" d="M250.497 140.916C239.787 139.269 229.77 146.616 228.123 157.325L218.78 218.082C217.908 223.752 217.262 227.956 217.022 231.326C216.783 234.686 216.954 237.145 217.675 239.331C218.973 243.266 221.484 246.689 224.847 249.109C226.715 250.454 229.009 251.356 232.286 252.138C235.572 252.921 239.776 253.569 245.446 254.441L305.926 263.741C311.597 264.613 315.801 265.259 319.17 265.499C322.531 265.738 324.989 265.567 327.176 264.845C331.11 263.547 334.533 261.037 336.953 257.674C338.298 255.805 339.201 253.512 339.982 250.235C340.766 246.949 341.413 242.745 342.285 237.075L347.943 200.283C348.815 194.613 349.46 190.409 349.7 187.039C349.94 183.679 349.768 181.22 349.047 179.033C347.749 175.099 345.238 171.676 341.875 169.256C340.007 167.911 337.713 167.009 334.436 166.227C331.15 165.443 326.946 164.796 321.276 163.924L307.67 161.832C302.237 160.997 297.434 157.132 292.859 153.45L292.752 153.364C288.045 149.577 283.566 146.001 278.611 145.239L250.497 140.916ZM227.314 157.201C229.029 146.044 239.464 138.391 250.621 140.107L278.735 144.43C283.95 145.232 288.608 148.979 293.265 152.726C297.923 156.474 302.58 160.221 307.795 161.023L321.401 163.115C332.714 164.855 338.371 165.725 342.354 168.591C345.857 171.113 348.472 174.678 349.824 178.777C351.361 183.437 350.492 189.094 348.752 200.407L343.094 237.199C341.354 248.513 340.484 254.17 337.618 258.152C335.097 261.655 331.531 264.271 327.432 265.623C322.772 267.16 317.116 266.29 305.802 264.55L245.322 255.25C234.008 253.51 228.351 252.64 224.369 249.774C220.865 247.252 218.25 243.687 216.898 239.588C215.361 234.928 216.231 229.271 217.97 217.958L227.314 157.201Z" fill="url(#paint4_linear_26_4973)"/>
<path d="M221.08 197.74C222.817 186.441 223.612 180.785 226.475 176.808C228.993 173.309 232.542 170.705 236.637 169.355C241.292 167.82 246.92 168.76 258.222 170.498L318.962 179.839C330.264 181.577 335.915 182.371 339.894 185.234C343.394 187.752 345.996 191.302 347.347 195.395C348.883 200.049 347.941 205.683 346.203 216.981L343.074 237.329C341.337 248.627 340.542 254.284 337.679 258.261C335.161 261.759 331.612 264.363 327.518 265.714C322.863 267.249 317.234 266.308 305.932 264.57L245.192 255.23C233.89 253.492 228.239 252.697 224.26 249.835C220.76 247.317 218.159 243.767 216.807 239.673C215.272 235.019 216.213 229.386 217.951 218.087L221.08 197.74Z" fill="url(#paint5_radial_26_4973)"/>
<path fill-rule="evenodd" clip-rule="evenodd" d="M318.837 180.648L258.098 171.307C257.747 171.253 257.401 171.2 257.061 171.148C251.914 170.355 248.028 169.757 244.874 169.515C241.522 169.259 239.074 169.413 236.893 170.132C232.963 171.428 229.557 173.928 227.139 177.286C225.798 179.149 224.915 181.438 224.153 184.714C223.436 187.793 222.839 191.676 222.05 196.817C221.997 197.161 221.944 197.509 221.889 197.864L218.76 218.212C218.705 218.566 218.652 218.915 218.599 219.259C217.807 224.399 217.209 228.282 216.968 231.435C216.711 234.788 216.865 237.237 217.585 239.417C218.882 243.346 221.379 246.753 224.738 249.17C226.603 250.511 228.891 251.394 232.166 252.157C235.247 252.874 239.132 253.471 244.28 254.261C244.62 254.314 244.966 254.367 245.317 254.421L306.056 263.761C306.407 263.815 306.753 263.868 307.093 263.921C312.24 264.713 316.126 265.312 319.28 265.553C322.632 265.81 325.08 265.655 327.261 264.936C331.192 263.64 334.597 261.141 337.015 257.782C338.356 255.919 339.239 253.63 340.002 250.355C340.718 247.275 341.315 243.392 342.104 238.252C342.157 237.908 342.211 237.559 342.265 237.204L345.394 216.857C345.449 216.502 345.503 216.153 345.555 215.81C346.347 210.669 346.945 206.787 347.186 203.634C347.443 200.281 347.289 197.832 346.569 195.652C345.272 191.722 342.775 188.315 339.416 185.898C337.552 184.557 335.263 183.674 331.989 182.912C328.908 182.194 325.022 181.598 319.874 180.807C319.534 180.755 319.189 180.702 318.837 180.648ZM221.243 196.675C221.19 197.024 221.135 197.379 221.08 197.74L217.951 218.087C217.895 218.448 217.841 218.803 217.787 219.152C216.156 229.744 215.321 235.168 216.807 239.673C218.159 243.767 220.76 247.317 224.26 249.835C228.113 252.607 233.534 253.439 244.138 255.068C244.484 255.121 244.835 255.175 245.192 255.23L305.932 264.57C306.289 264.625 306.64 264.679 306.986 264.733C317.589 266.365 323.01 267.2 327.518 265.714C331.612 264.363 335.161 261.759 337.679 258.261C340.451 254.41 341.284 248.986 342.911 238.393C342.964 238.044 343.019 237.689 343.074 237.329L346.203 216.981C346.259 216.621 346.313 216.266 346.367 215.917C347.998 205.324 348.834 199.901 347.347 195.395C345.996 191.302 343.394 187.752 339.894 185.234C336.041 182.462 330.62 181.629 320.016 180.001C319.67 179.948 319.319 179.894 318.962 179.839L258.222 170.498C257.865 170.443 257.514 170.389 257.168 170.336C246.565 168.703 241.145 167.868 236.637 169.355C232.542 170.705 228.993 173.309 226.475 176.808C223.703 180.658 222.87 186.082 221.243 196.675Z" fill="url(#paint6_linear_26_4973)"/>
<path fill-rule="evenodd" clip-rule="evenodd" d="M318.837 180.648L258.098 171.307C257.747 171.253 257.401 171.2 257.061 171.148C251.914 170.355 248.028 169.757 244.874 169.515C241.522 169.259 239.074 169.413 236.893 170.132C232.963 171.428 229.557 173.928 227.139 177.286C225.798 179.149 224.915 181.438 224.153 184.714C223.436 187.793 222.839 191.676 222.05 196.817C221.997 197.161 221.944 197.509 221.889 197.864L218.76 218.212C218.705 218.566 218.652 218.915 218.599 219.259C217.807 224.399 217.209 228.282 216.968 231.435C216.711 234.788 216.865 237.237 217.585 239.417C218.882 243.346 221.379 246.753 224.738 249.17C226.603 250.511 228.891 251.394 232.166 252.157C235.247 252.874 239.132 253.471 244.28 254.261C244.62 254.314 244.966 254.367 245.317 254.421L306.056 263.761C306.407 263.815 306.753 263.868 307.093 263.921C312.24 264.713 316.126 265.312 319.28 265.553C322.632 265.81 325.08 265.655 327.261 264.936C331.192 263.64 334.597 261.141 337.015 257.782C338.356 255.919 339.239 253.63 340.002 250.355C340.718 247.275 341.315 243.392 342.104 238.252C342.157 237.908 342.211 237.559 342.265 237.204L345.394 216.857C345.449 216.502 345.503 216.153 345.555 215.81C346.347 210.669 346.945 206.787 347.186 203.634C347.443 200.281 347.289 197.832 346.569 195.652C345.272 191.722 342.775 188.315 339.416 185.898C337.552 184.557 335.263 183.674 331.989 182.912C328.908 182.194 325.022 181.598 319.874 180.807C319.534 180.755 319.189 180.702 318.837 180.648ZM221.243 196.675C221.19 197.024 221.135 197.379 221.08 197.74L217.951 218.087C217.895 218.448 217.841 218.803 217.787 219.152C216.156 229.744 215.321 235.168 216.807 239.673C218.159 243.767 220.76 247.317 224.26 249.835C228.113 252.607 233.534 253.439 244.138 255.068C244.484 255.121 244.835 255.175 245.192 255.23L305.932 264.57C306.289 264.625 306.64 264.679 306.986 264.733C317.589 266.365 323.01 267.2 327.518 265.714C331.612 264.363 335.161 261.759 337.679 258.261C340.451 254.41 341.284 248.986 342.911 238.393C342.964 238.044 343.019 237.689 343.074 237.329L346.203 216.981C346.259 216.621 346.313 216.266 346.367 215.917C347.998 205.324 348.834 199.901 347.347 195.395C345.996 191.302 343.394 187.752 339.894 185.234C336.041 182.462 330.62 181.629 320.016 180.001C319.67 179.948 319.319 179.894 318.962 179.839L258.222 170.498C257.865 170.443 257.514 170.389 257.168 170.336C246.565 168.703 241.145 167.868 236.637 169.355C232.542 170.705 228.993 173.309 226.475 176.808C223.703 180.658 222.87 186.082 221.243 196.675Z" fill="url(#paint7_linear_26_4973)"/>
</g>
<path fill-rule="evenodd" clip-rule="evenodd" d="M187.255 188.201C176.068 189.711 168.224 200.003 169.734 211.19L172.978 235.218L173.305 237.644L177.957 272.108C179.489 283.452 180.254 289.124 183.047 293.158C185.503 296.708 189.02 299.388 193.093 300.815C197.724 302.438 203.396 301.672 214.739 300.141L275.381 291.955C286.724 290.424 292.396 289.659 296.431 286.866C299.98 284.41 302.66 280.893 304.088 276.82C305.711 272.189 304.945 266.517 303.414 255.173L298.434 218.283C296.903 206.94 296.137 201.268 293.345 197.233C290.888 193.684 287.372 191.004 283.298 189.576C278.668 187.954 272.996 188.719 261.652 190.25L248.01 192.092C237.552 193.504 225.902 182.984 215.444 184.396L187.255 188.201Z" fill="#212121"/>
<path fill-rule="evenodd" clip-rule="evenodd" d="M187.364 189.012C176.626 190.462 169.096 200.342 170.545 211.08L178.769 271.999C179.536 277.684 180.106 281.899 180.829 285.199C181.55 288.49 182.41 290.799 183.72 292.693C186.078 296.1 189.454 298.672 193.364 300.043C195.537 300.804 197.992 301.021 201.356 300.844C204.73 300.666 208.945 300.097 214.63 299.33L275.271 291.144C280.957 290.377 285.172 289.807 288.472 289.084C291.762 288.363 294.072 287.503 295.965 286.193C299.372 283.835 301.945 280.459 303.315 276.549C304.077 274.376 304.293 271.921 304.116 268.557C303.938 265.183 303.37 260.968 302.603 255.283L297.623 218.393C296.855 212.708 296.286 208.493 295.563 205.193C294.842 201.902 293.982 199.592 292.672 197.699C290.314 194.292 286.938 191.719 283.028 190.349C280.855 189.587 278.4 189.371 275.036 189.548C271.662 189.726 267.447 190.294 261.761 191.062L248.12 192.903C242.672 193.638 236.972 191.29 231.542 189.053L231.415 189.001C225.829 186.699 220.521 184.536 215.553 185.207L187.364 189.012ZM169.734 211.19C168.224 200.003 176.068 189.711 187.255 188.201L215.444 184.396C220.673 183.69 226.2 185.967 231.727 188.244C237.254 190.521 242.781 192.798 248.01 192.092L261.652 190.25C272.996 188.719 278.668 187.954 283.298 189.576C287.372 191.004 290.888 193.684 293.345 197.233C296.137 201.268 296.903 206.94 298.434 218.283L303.414 255.173C304.945 266.517 305.711 272.189 304.088 276.82C302.66 280.893 299.98 284.41 296.431 286.866C292.396 289.659 286.724 290.424 275.381 291.955L214.739 300.141C203.396 301.672 197.724 302.438 193.093 300.815C189.02 299.388 185.503 296.708 183.047 293.158C180.254 289.124 179.489 283.452 177.957 272.108L169.734 211.19Z" fill="#747474"/>
<path d="M175.238 251.966C173.707 240.623 172.942 234.951 174.564 230.32C175.992 226.247 178.672 222.73 182.221 220.273C186.256 217.481 191.928 216.715 203.271 215.184L263.913 206.998C275.256 205.467 280.928 204.701 285.559 206.324C289.632 207.752 293.149 210.432 295.606 213.981C298.398 218.016 299.164 223.688 300.695 235.031L303.414 255.173C304.945 266.517 305.711 272.189 304.088 276.82C302.66 280.893 299.98 284.41 296.431 286.866C292.396 289.659 286.725 290.424 275.381 291.955L214.74 300.141C203.396 301.672 197.724 302.438 193.093 300.815C189.02 299.388 185.503 296.708 183.047 293.159C180.254 289.124 179.489 283.452 177.957 272.108L175.238 251.966Z" fill="#1E1E1E"/>
<path d="M175.221 251.836C173.692 240.508 172.854 234.858 174.475 230.233C175.902 226.165 178.568 222.664 182.114 220.21C186.145 217.421 191.809 216.731 203.142 215.202L264.043 206.981C275.375 205.451 281.02 204.615 285.646 206.235C289.715 207.66 293.215 210.329 295.669 213.874C298.458 217.903 299.148 223.573 300.678 234.901L303.432 255.303C304.961 266.632 305.799 272.282 304.177 276.906C302.751 280.974 300.084 284.476 296.539 286.929C292.508 289.718 286.844 290.408 275.511 291.938L214.61 300.159C203.277 301.688 197.633 302.525 193.007 300.904C188.938 299.479 185.438 296.81 182.984 293.266C180.194 289.237 179.504 283.567 177.975 272.238L175.221 251.836Z" fill="#262626"/>
<mask id="path-11-inside-1_26_4973" fill="white">
<path fill-rule="evenodd" clip-rule="evenodd" d="M264.152 207.792L203.251 216.013C202.899 216.06 202.553 216.107 202.212 216.153C197.05 216.849 193.154 217.374 190.061 218.034C186.773 218.736 184.468 219.577 182.58 220.884C179.177 223.238 176.617 226.599 175.248 230.504C174.488 232.67 174.289 235.116 174.484 238.473C174.667 241.63 175.194 245.523 175.891 250.677C175.937 251.021 175.984 251.371 176.032 251.727L178.786 272.129C178.834 272.484 178.882 272.834 178.928 273.178C179.623 278.333 180.147 282.226 180.808 285.318C181.51 288.607 182.35 290.912 183.657 292.8C186.013 296.202 189.372 298.764 193.277 300.132C195.445 300.891 197.889 301.091 201.246 300.896C204.404 300.712 208.3 300.186 213.461 299.488C213.802 299.442 214.148 299.395 214.5 299.347L275.402 291.127C275.754 291.079 276.1 291.032 276.441 290.986C281.602 290.291 285.498 289.766 288.592 289.105C291.88 288.403 294.185 287.562 296.073 286.256C299.476 283.901 302.036 280.541 303.405 276.635C304.164 274.469 304.364 272.024 304.169 268.666C303.985 265.51 303.459 261.617 302.762 256.463C302.716 256.118 302.668 255.768 302.62 255.413L299.866 235.011C299.818 234.655 299.771 234.305 299.725 233.961C299.03 228.807 298.505 224.913 297.845 221.821C297.143 218.532 296.302 216.227 294.996 214.34C292.64 210.937 289.281 208.376 285.375 207.008C283.208 206.248 280.764 206.049 277.407 206.244C274.249 206.427 270.353 206.954 265.192 207.651C264.851 207.698 264.505 207.744 264.152 207.792ZM175.077 250.769C175.124 251.119 175.172 251.475 175.221 251.836L177.975 272.238C178.024 272.6 178.072 272.955 178.119 273.305C179.551 283.927 180.283 289.365 182.984 293.266C185.438 296.81 188.938 299.479 193.007 300.904C197.487 302.474 202.922 301.739 213.553 300.302C213.899 300.255 214.252 300.207 214.61 300.159L275.511 291.938C275.869 291.89 276.222 291.842 276.568 291.795C287.2 290.362 292.635 289.63 296.539 286.929C300.084 284.476 302.751 280.974 304.177 276.906C305.747 272.429 305.012 266.991 303.576 256.37C303.528 256.02 303.48 255.665 303.432 255.303L300.678 234.901C300.629 234.54 300.581 234.184 300.534 233.834C299.102 223.213 298.369 217.774 295.669 213.874C293.215 210.329 289.715 207.66 285.646 206.235C281.166 204.666 275.731 205.401 265.1 206.838C264.753 206.885 264.401 206.932 264.043 206.981L203.142 215.202C202.784 215.25 202.431 215.297 202.084 215.344C191.453 216.777 186.018 217.51 182.114 220.21C178.568 222.664 175.902 226.165 174.475 230.233C172.906 234.71 173.641 240.148 175.077 250.769Z"/>
</mask>
<path d="M202.212 216.153L202.078 215.162L202.212 216.153ZM190.061 218.034L190.27 219.012L190.061 218.034ZM182.58 220.884L182.011 220.061L182.58 220.884ZM175.248 230.504L174.304 230.173L174.304 230.173L175.248 230.504ZM174.484 238.473L175.482 238.415L174.484 238.473ZM175.891 250.677L174.9 250.811L175.891 250.677ZM178.928 273.178L177.937 273.312L178.928 273.178ZM180.808 285.318L179.83 285.527L180.808 285.318ZM183.657 292.8L182.835 293.369L182.835 293.369L183.657 292.8ZM193.277 300.132L192.947 301.076L192.947 301.076L193.277 300.132ZM201.246 300.896L201.304 301.894L201.246 300.896ZM213.461 299.488L213.327 298.497L213.327 298.497L213.461 299.488ZM276.441 290.986L276.307 289.995L276.307 289.995L276.441 290.986ZM288.592 289.105L288.801 290.083L288.592 289.105ZM296.073 286.256L296.642 287.078L296.073 286.256ZM303.405 276.635L304.349 276.966L304.349 276.966L303.405 276.635ZM304.169 268.666L305.167 268.608L304.169 268.666ZM302.762 256.463L301.771 256.597L301.771 256.597L302.762 256.463ZM299.725 233.961L298.734 234.094L298.734 234.094L299.725 233.961ZM297.845 221.821L298.823 221.612L298.823 221.612L297.845 221.821ZM294.996 214.34L295.818 213.77L295.818 213.77L294.996 214.34ZM285.375 207.008L285.706 206.064L285.706 206.064L285.375 207.008ZM277.407 206.244L277.349 205.245L277.349 205.245L277.407 206.244ZM265.192 207.651L265.058 206.661L265.192 207.651ZM175.077 250.769L174.086 250.903L175.077 250.769ZM178.119 273.305L179.11 273.172L178.119 273.305ZM182.984 293.266L182.162 293.835L182.984 293.266ZM193.007 300.904L192.676 301.848L192.676 301.848L193.007 300.904ZM213.553 300.302L213.686 301.293L213.687 301.293L213.553 300.302ZM276.568 291.795L276.702 292.786L276.702 292.786L276.568 291.795ZM296.539 286.929L295.97 286.107L296.539 286.929ZM304.177 276.906L305.121 277.237L304.177 276.906ZM303.576 256.37L304.567 256.236L303.576 256.37ZM300.534 233.834L301.525 233.701L300.534 233.834ZM295.669 213.874L296.491 213.304L295.669 213.874ZM285.646 206.235L285.315 207.179L285.315 207.179L285.646 206.235ZM265.1 206.838L265.234 207.829L265.1 206.838ZM202.084 215.344L202.218 216.335L202.084 215.344ZM182.114 220.21L182.683 221.033L182.683 221.033L182.114 220.21ZM174.475 230.233L173.532 229.902L173.532 229.902L174.475 230.233ZM203.385 217.004L264.286 208.783L264.019 206.801L203.117 215.022L203.385 217.004ZM202.345 217.144C202.686 217.098 203.033 217.051 203.385 217.004L203.117 215.022C202.765 215.069 202.419 215.116 202.078 215.162L202.345 217.144ZM190.27 219.012C193.317 218.362 197.169 217.842 202.345 217.144L202.078 215.162C196.932 215.856 192.992 216.386 189.852 217.056L190.27 219.012ZM183.149 221.706C184.882 220.507 187.04 219.702 190.27 219.012L189.852 217.056C186.505 217.771 184.054 218.647 182.011 220.061L183.149 221.706ZM176.192 230.835C177.491 227.129 179.919 223.94 183.149 221.706L182.011 220.061C178.434 222.536 175.743 226.069 174.304 230.173L176.192 230.835ZM175.482 238.415C175.291 235.118 175.495 232.823 176.192 230.835L174.304 230.173C173.482 232.518 173.287 235.114 173.486 238.531L175.482 238.415ZM176.882 250.543C176.183 245.374 175.663 241.525 175.482 238.415L173.486 238.531C173.672 241.735 174.205 245.672 174.9 250.811L176.882 250.543ZM177.023 251.593C176.975 251.237 176.928 250.887 176.882 250.543L174.9 250.811C174.946 251.155 174.993 251.505 175.041 251.861L177.023 251.593ZM179.777 271.995L177.023 251.593L175.041 251.861L177.795 272.262L179.777 271.995ZM179.919 273.045C179.873 272.7 179.825 272.351 179.777 271.995L177.795 272.262C177.843 272.618 177.891 272.968 177.937 273.312L179.919 273.045ZM181.786 285.11C181.135 282.063 180.616 278.214 179.919 273.045L177.937 273.312C178.63 278.451 179.16 282.389 179.83 285.527L181.786 285.11ZM184.479 292.231C183.28 290.499 182.475 288.34 181.786 285.11L179.83 285.527C180.544 288.875 181.421 291.326 182.835 293.369L184.479 292.231ZM193.608 299.188C189.902 297.89 186.715 295.46 184.479 292.231L182.835 293.369C185.31 296.945 188.841 299.638 192.947 301.076L193.608 299.188ZM201.188 299.897C197.892 300.089 195.597 299.885 193.608 299.188L192.947 301.076C195.292 301.897 197.887 302.092 201.304 301.894L201.188 299.897ZM213.327 298.497C208.151 299.197 204.299 299.717 201.188 299.897L201.304 301.894C204.509 301.708 208.449 301.175 213.595 300.479L213.327 298.497ZM214.367 298.356C214.014 298.404 213.668 298.451 213.327 298.497L213.595 300.479C213.936 300.433 214.282 300.386 214.634 300.338L214.367 298.356ZM275.268 290.136L214.367 298.356L214.634 300.338L275.535 292.118L275.268 290.136ZM276.307 289.995C275.966 290.041 275.62 290.088 275.268 290.136L275.535 292.118C275.887 292.07 276.234 292.023 276.574 291.977L276.307 289.995ZM288.383 288.127C285.336 288.778 281.484 289.298 276.307 289.995L276.574 291.977C281.721 291.284 285.661 290.753 288.801 290.083L288.383 288.127ZM295.504 285.433C293.771 286.633 291.612 287.438 288.383 288.127L288.801 290.083C292.148 289.368 294.598 288.492 296.642 287.078L295.504 285.433ZM302.461 276.305C301.162 280.011 298.733 283.199 295.504 285.433L296.642 287.078C300.219 284.603 302.91 281.07 304.349 276.966L302.461 276.305ZM303.17 268.724C303.362 272.021 303.158 274.317 302.461 276.305L304.349 276.966C305.171 274.622 305.366 272.026 305.167 268.608L303.17 268.724ZM301.771 256.597C302.47 261.766 302.99 265.615 303.17 268.724L305.167 268.608C304.981 265.405 304.448 261.468 303.753 256.329L301.771 256.597ZM301.629 255.546C301.677 255.902 301.725 256.252 301.771 256.597L303.753 256.329C303.707 255.984 303.659 255.634 303.611 255.279L301.629 255.546ZM298.875 235.145L301.629 255.546L303.611 255.279L300.857 234.877L298.875 235.145ZM298.734 234.094C298.78 234.439 298.827 234.789 298.875 235.145L300.857 234.877C300.809 234.521 300.762 234.172 300.716 233.827L298.734 234.094ZM296.867 222.03C297.518 225.076 298.037 228.925 298.734 234.094L300.716 233.827C300.023 228.688 299.493 224.751 298.823 221.612L296.867 222.03ZM294.174 214.909C295.373 216.641 296.178 218.8 296.867 222.03L298.823 221.612C298.109 218.264 297.232 215.813 295.818 213.77L294.174 214.909ZM285.045 207.951C288.751 209.249 291.938 211.68 294.174 214.909L295.818 213.77C293.342 210.195 289.811 207.502 285.706 206.064L285.045 207.951ZM277.465 207.242C280.761 207.051 283.056 207.255 285.045 207.951L285.706 206.064C283.361 205.242 280.766 205.047 277.349 205.245L277.465 207.242ZM265.326 208.642C270.502 207.943 274.354 207.423 277.465 207.242L277.349 205.245C274.144 205.432 270.204 205.965 265.058 206.661L265.326 208.642ZM264.286 208.783C264.638 208.735 264.985 208.689 265.326 208.642L265.058 206.661C264.717 206.707 264.371 206.753 264.019 206.801L264.286 208.783ZM176.212 251.702C176.163 251.341 176.115 250.985 176.068 250.635L174.086 250.903C174.133 251.253 174.181 251.609 174.23 251.97L176.212 251.702ZM178.966 272.104L176.212 251.702L174.23 251.97L176.984 272.372L178.966 272.104ZM179.11 273.172C179.063 272.822 179.015 272.466 178.966 272.104L176.984 272.372C177.033 272.733 177.081 273.089 177.128 273.439L179.11 273.172ZM183.806 292.697C182.56 290.897 181.738 288.704 181.052 285.591C180.363 282.466 179.828 278.499 179.11 273.172L177.128 273.439C177.842 278.733 178.388 282.796 179.099 286.021C179.812 289.258 180.707 291.734 182.162 293.835L183.806 292.697ZM193.337 299.961C189.468 298.605 186.14 296.067 183.806 292.697L182.162 293.835C184.736 297.553 188.407 300.353 192.676 301.848L193.337 299.961ZM213.419 299.311C208.087 300.031 204.118 300.567 200.922 300.732C197.737 300.896 195.405 300.685 193.337 299.961L192.676 301.848C195.089 302.693 197.713 302.9 201.024 302.729C204.323 302.559 208.387 302.009 213.686 301.293L213.419 299.311ZM214.476 299.168C214.118 299.216 213.765 299.264 213.419 299.311L213.687 301.293C214.033 301.246 214.386 301.198 214.744 301.15L214.476 299.168ZM275.377 290.947L214.476 299.168L214.744 301.15L275.645 292.929L275.377 290.947ZM276.435 290.804C276.088 290.851 275.735 290.898 275.377 290.947L275.645 292.929C276.003 292.881 276.355 292.833 276.702 292.786L276.435 290.804ZM295.97 286.107C294.168 287.353 291.975 288.175 288.861 288.861C285.736 289.55 281.767 290.086 276.435 290.804L276.702 292.786C282.001 292.072 286.066 291.525 289.292 290.814C292.529 290.101 295.006 289.206 297.108 287.751L295.97 286.107ZM303.234 276.575C301.877 280.444 299.341 283.774 295.97 286.107L297.108 287.751C300.827 285.178 303.625 281.504 305.121 277.237L303.234 276.575ZM302.585 256.504C303.305 261.831 303.841 265.798 304.005 268.994C304.169 272.177 303.958 274.51 303.234 276.575L305.121 277.237C305.966 274.826 306.173 272.201 306.002 268.891C305.833 265.593 305.283 261.53 304.567 256.236L302.585 256.504ZM302.441 255.437C302.489 255.798 302.537 256.154 302.585 256.504L304.567 256.236C304.519 255.886 304.471 255.531 304.423 255.169L302.441 255.437ZM299.687 235.035L302.441 255.437L304.423 255.169L301.669 234.768L299.687 235.035ZM299.543 233.968C299.59 234.318 299.638 234.674 299.687 235.035L301.669 234.768C301.62 234.406 301.572 234.051 301.525 233.701L299.543 233.968ZM294.847 214.443C296.093 216.243 296.914 218.436 297.601 221.549C298.289 224.674 298.825 228.641 299.543 233.968L301.525 233.701C300.811 228.406 300.264 224.343 299.554 221.118C298.84 217.882 297.945 215.405 296.491 213.304L294.847 214.443ZM285.315 207.179C289.185 208.534 292.513 211.072 294.847 214.443L296.491 213.304C293.917 209.587 290.245 206.786 285.977 205.291L285.315 207.179ZM265.234 207.829C270.566 207.108 274.535 206.572 277.731 206.408C280.916 206.244 283.248 206.455 285.315 207.179L285.977 205.291C283.564 204.446 280.939 204.24 277.628 204.41C274.33 204.58 270.265 205.13 264.966 205.847L265.234 207.829ZM264.177 207.972C264.535 207.923 264.887 207.876 265.234 207.829L264.966 205.847C264.619 205.894 264.267 205.941 263.909 205.99L264.177 207.972ZM203.276 216.193L264.177 207.972L263.909 205.99L203.008 214.211L203.276 216.193ZM202.218 216.335C202.565 216.288 202.917 216.241 203.276 216.193L203.008 214.211C202.65 214.259 202.298 214.306 201.951 214.353L202.218 216.335ZM182.683 221.033C184.484 219.786 186.678 218.965 189.791 218.278C192.917 217.59 196.886 217.054 202.218 216.335L201.951 214.353C196.651 215.067 192.587 215.614 189.361 216.325C186.123 217.039 183.647 217.934 181.545 219.388L182.683 221.033ZM175.419 230.564C176.776 226.695 179.311 223.366 182.683 221.033L181.545 219.388C177.826 221.962 175.028 225.635 173.532 229.902L175.419 230.564ZM176.068 250.635C175.348 245.308 174.812 241.342 174.648 238.146C174.484 234.962 174.695 232.63 175.419 230.564L173.532 229.902C172.686 232.314 172.48 234.939 172.65 238.249C172.82 241.546 173.37 245.609 174.086 250.903L176.068 250.635Z" fill="#747474" mask="url(#path-11-inside-1_26_4973)"/>
<defs>
<linearGradient id="paint0_linear_26_4973" x1="109.692" y1="87.0857" x2="327.671" y2="423.523" gradientUnits="userSpaceOnUse">
<stop stop-color="#3D3D3D"/>
<stop offset="1" stop-color="#3D3D3D" stop-opacity="0"/>
</linearGradient>
<linearGradient id="paint1_linear_26_4973" x1="382.755" y1="93.4587" x2="69.8473" y2="294.866" gradientUnits="userSpaceOnUse">
<stop stop-color="#3D3D3D"/>
<stop offset="1" stop-color="#3D3D3D" stop-opacity="0"/>
</linearGradient>
<radialGradient id="paint2_radial_26_4973" cx="0" cy="0" r="1" gradientUnits="userSpaceOnUse" gradientTransform="translate(338.105 269.638) rotate(-129.072) scale(170.848 226.847)">
<stop stop-color="white" stop-opacity="0.2"/>
<stop offset="1" stop-color="white" stop-opacity="0.09"/>
</radialGradient>
<linearGradient id="paint3_linear_26_4973" x1="230.42" y1="137" x2="332.716" y2="278.749" gradientUnits="userSpaceOnUse">
<stop offset="0.508799" stop-color="white" stop-opacity="0.48"/>
<stop offset="1" stop-color="white" stop-opacity="0.73"/>
</linearGradient>
<linearGradient id="paint4_linear_26_4973" x1="230.42" y1="137" x2="355.628" y2="255.007" gradientUnits="userSpaceOnUse">
<stop offset="0.228092" stop-color="white" stop-opacity="0.12"/>
<stop offset="0.99027" stop-color="white" stop-opacity="0"/>
</linearGradient>
<radialGradient id="paint5_radial_26_4973" cx="0" cy="0" r="1" gradientUnits="userSpaceOnUse" gradientTransform="translate(338.124 269.521) rotate(-137.152) scale(152.891 189.413)">
<stop stop-color="white" stop-opacity="0.2"/>
<stop offset="1" stop-color="white" stop-opacity="0.09"/>
</radialGradient>
<linearGradient id="paint6_linear_26_4973" x1="226.03" y1="165.547" x2="294.446" y2="296.395" gradientUnits="userSpaceOnUse">
<stop offset="0.508799" stop-color="white" stop-opacity="0.48"/>
<stop offset="1" stop-color="white" stop-opacity="0.73"/>
</linearGradient>
<linearGradient id="paint7_linear_26_4973" x1="226.03" y1="165.547" x2="321.831" y2="285.623" gradientUnits="userSpaceOnUse">
<stop offset="0.228092" stop-color="white" stop-opacity="0.12"/>
<stop offset="0.99027" stop-color="white" stop-opacity="0"/>
</linearGradient>
</defs>
</svg>
